<svg width="214" height="156" viewBox="0 0 214 156" fill="none" xmlns="http://www.w3.org/2000/svg">
<g filter="url(#filter0_d_107_39)">
<path d="M6.85476 68.6149C5.5672 67.5346 4.84026 65.8932 4.83387 64.0518C4.82747 62.2104 5.54215 60.3199 6.82067 58.7961L48.5998 9.00145C49.8783 7.47764 51.6159 6.44538 53.4304 6.13178C55.2449 5.81817 56.9876 6.24889 58.2752 7.32919L63.13 11.4025C63.5591 11.7626 63.8015 12.3097 63.8036 12.9235C63.8057 13.5373 63.5675 14.1675 63.1413 14.6754C61.8628 16.1992 61.1481 18.0898 61.1545 19.9312C61.1609 21.7725 61.8879 23.4139 63.1754 24.4942C64.463 25.5745 66.2057 26.0053 68.0202 25.6916C69.8347 25.378 71.5723 24.3458 72.8508 22.822C73.277 22.314 73.8562 21.97 74.4611 21.8654C75.0659 21.7609 75.6468 21.9045 76.076 22.2646L80.9308 26.3378C82.2183 27.4181 82.9453 29.0595 82.9516 30.9009C82.958 32.7423 82.2434 34.6328 80.9648 36.1567L39.1857 85.9513C37.9072 87.4751 36.1696 88.5074 34.3551 88.821C32.5406 89.1346 30.7979 88.7039 29.5103 87.6236L24.6556 83.5503C24.2264 83.1902 23.9841 82.643 23.9819 82.0292C23.9798 81.4155 24.218 80.7853 24.6442 80.2773C25.9227 78.7535 26.6374 76.863 26.631 75.0216C26.6246 73.1802 25.8977 71.5388 24.6101 70.4585C23.3225 69.3782 21.5798 68.9475 19.7653 69.2611C17.9508 69.5747 16.2132 70.607 14.9347 72.1308C14.5085 72.6387 13.9293 72.9828 13.3244 73.0873C12.7196 73.1919 12.1387 73.0483 11.7095 72.6882L6.85476 68.6149ZM10.0572 61.5116C9.631 62.0195 9.39278 62.6497 9.39491 63.2635C9.39704 63.8773 9.63935 64.4244 10.0685 64.7846L13.4669 67.6358C15.6545 65.7828 18.2798 64.6692 20.8978 64.4838C23.5158 64.2984 25.9655 65.0526 27.8319 66.6186C29.6983 68.1845 30.8667 70.466 31.1389 73.0764C31.4112 75.6868 30.7706 78.4656 29.3258 80.9419L32.7241 83.7932C33.1533 84.1533 33.7342 84.2969 34.339 84.1923C34.9439 84.0878 35.5231 83.7437 35.9492 83.2358L77.7283 33.4411C78.1545 32.9332 78.3927 32.303 78.3906 31.6892C78.3885 31.0754 78.1462 30.5283 77.717 30.1682L74.3186 27.3169C72.131 29.17 69.5057 30.2836 66.8878 30.469C64.2698 30.6544 61.82 29.9002 59.9536 28.3342C58.0872 26.7682 56.9189 24.4867 56.6466 21.8763C56.3744 19.266 57.0149 16.4872 58.4598 14.0108L55.0614 11.1595C54.6322 10.7994 54.0513 10.6559 53.4465 10.7604C52.8417 10.8649 52.2624 11.209 51.8363 11.717L10.0572 61.5116Z" fill="white"/>
<path d="M49.875 45.2614C49.6932 43.6477 48.9432 42.3977 47.625 41.5114C46.3068 40.6136 44.6477 40.1648 42.6477 40.1648C41.2159 40.1648 39.9773 40.392 38.9318 40.8466C37.8864 41.2898 37.0739 41.9034 36.4943 42.6875C35.9261 43.4602 35.642 44.3409 35.642 45.3295C35.642 46.1591 35.8352 46.875 36.2216 47.4773C36.6193 48.0795 37.1364 48.5852 37.7727 48.9943C38.4205 49.392 39.1136 49.7273 39.8523 50C40.5909 50.2614 41.3011 50.4773 41.983 50.6477L45.392 51.5341C46.5057 51.8068 47.6477 52.1761 48.8182 52.642C49.9886 53.108 51.0739 53.7216 52.0739 54.483C53.0739 55.2443 53.8807 56.1875 54.4943 57.3125C55.1193 58.4375 55.4318 59.7841 55.4318 61.3523C55.4318 63.3295 54.9205 65.0852 53.8977 66.6193C52.8864 68.1534 51.4148 69.3636 49.483 70.25C47.5625 71.1364 45.2386 71.5795 42.5114 71.5795C39.8977 71.5795 37.6364 71.1648 35.7273 70.3352C33.8182 69.5057 32.3239 68.3295 31.2443 66.8068C30.1648 65.2727 29.5682 63.4545 29.4545 61.3523H34.7386C34.8409 62.6136 35.25 63.6648 35.9659 64.5057C36.6932 65.3352 37.6193 65.9545 38.7443 66.3636C39.8807 66.7614 41.125 66.9602 42.4773 66.9602C43.9659 66.9602 45.2898 66.7273 46.4489 66.2614C47.6193 65.7841 48.5398 65.125 49.2102 64.2841C49.8807 63.4318 50.2159 62.4375 50.2159 61.3011C50.2159 60.267 49.9205 59.4205 49.3295 58.7614C48.75 58.1023 47.9602 57.5568 46.9602 57.125C45.9716 56.6932 44.8523 56.3125 43.6023 55.983L39.4773 54.858C36.6818 54.0966 34.4659 52.9773 32.8295 51.5C31.2045 50.0227 30.392 48.0682 30.392 45.6364C30.392 43.625 30.9375 41.8693 32.0284 40.3693C33.1193 38.8693 34.5966 37.7045 36.4602 36.875C38.3239 36.0341 40.4261 35.6136 42.767 35.6136C45.1307 35.6136 47.2159 36.0284 49.0227 36.858C50.8409 37.6875 52.2727 38.8295 53.3182 40.2841C54.3636 41.7273 54.9091 43.3864 54.9545 45.2614H49.875ZM66.527 71.4119C65.1349 71.4119 63.8944 71.1705 62.8054 70.6875C61.7164 70.1951 60.8546 69.4706 60.2202 68.5142C59.5952 67.5483 59.2827 66.3456 59.2827 64.9062C59.2827 63.6941 59.5052 62.6761 59.9503 61.8523C60.3954 61.0284 61.0014 60.3655 61.7685 59.8636C62.5355 59.3617 63.4067 58.983 64.3821 58.7273C65.367 58.4716 66.3991 58.2917 67.4787 58.1875C68.7476 58.0549 69.7704 57.9318 70.5469 57.8182C71.3234 57.6951 71.8868 57.5152 72.2372 57.2784C72.5876 57.0417 72.7628 56.6913 72.7628 56.2273V56.142C72.7628 55.2424 72.4787 54.5464 71.9105 54.054C71.3518 53.5616 70.5563 53.3153 69.5241 53.3153C68.4351 53.3153 67.5687 53.5568 66.9247 54.0398C66.2808 54.5133 65.8546 55.1098 65.6463 55.8295L60.0497 55.375C60.3338 54.0492 60.8925 52.9034 61.7259 51.9375C62.5592 50.9621 63.634 50.214 64.9503 49.6932C66.276 49.1629 67.8101 48.8977 69.5526 48.8977C70.7647 48.8977 71.9247 49.0398 73.0327 49.3239C74.1501 49.608 75.1397 50.0483 76.0014 50.6449C76.8726 51.2415 77.5592 52.0085 78.0611 52.946C78.563 53.8741 78.8139 54.9867 78.8139 56.2841V71H73.0753V67.9744H72.9048C72.5545 68.6562 72.0857 69.2576 71.4986 69.7784C70.9115 70.2898 70.206 70.6922 69.3821 70.9858C68.5582 71.2699 67.6065 71.4119 66.527 71.4119ZM68.2599 67.2358C69.1501 67.2358 69.9361 67.0606 70.6179 66.7102C71.2997 66.3504 71.8348 65.8674 72.223 65.2614C72.6113 64.6553 72.8054 63.9687 72.8054 63.2017V60.8864C72.616 61.0095 72.3556 61.1231 72.0241 61.2273C71.7022 61.322 71.3376 61.4119 70.9304 61.4972C70.5232 61.5729 70.116 61.6439 69.7088 61.7102C69.3016 61.767 68.9323 61.8191 68.6009 61.8665C67.8906 61.9706 67.2704 62.1364 66.7401 62.3636C66.2098 62.5909 65.7978 62.8987 65.5043 63.2869C65.2107 63.6657 65.0639 64.1392 65.0639 64.7074C65.0639 65.5312 65.3622 66.161 65.9588 66.5966C66.5649 67.0227 67.3319 67.2358 68.2599 67.2358ZM83.5085 79.1818V49.1818H89.4744V52.8466H89.7443C90.0095 52.2595 90.393 51.6629 90.8949 51.0568C91.4063 50.4413 92.0691 49.9299 92.8835 49.5227C93.7074 49.1061 94.7301 48.8977 95.9517 48.8977C97.5426 48.8977 99.0104 49.3144 100.355 50.1477C101.7 50.9716 102.775 52.2169 103.58 53.8835C104.384 55.5407 104.787 57.6193 104.787 60.1193C104.787 62.553 104.394 64.608 103.608 66.2841C102.831 67.9508 101.771 69.215 100.426 70.0767C99.0909 70.929 97.5947 71.3551 95.9375 71.3551C94.7633 71.3551 93.7642 71.161 92.9403 70.7727C92.1259 70.3845 91.4583 69.8968 90.9375 69.3097C90.4167 68.7131 90.0189 68.1117 89.7443 67.5057H89.5597V79.1818H83.5085ZM89.4318 60.0909C89.4318 61.3883 89.6117 62.5199 89.9716 63.4858C90.3314 64.4517 90.8523 65.2045 91.5341 65.7443C92.2159 66.2746 93.0445 66.5398 94.0199 66.5398C95.0047 66.5398 95.8381 66.2699 96.5199 65.7301C97.2017 65.1809 97.7178 64.4233 98.0682 63.4574C98.428 62.482 98.608 61.3598 98.608 60.0909C98.608 58.8314 98.4328 57.7235 98.0824 56.767C97.732 55.8106 97.2159 55.0625 96.5341 54.5227C95.8523 53.983 95.0142 53.7131 94.0199 53.7131C93.035 53.7131 92.2017 53.9735 91.5199 54.4943C90.8475 55.0152 90.3314 55.7538 89.9716 56.7102C89.6117 57.6667 89.4318 58.7936 89.4318 60.0909ZM108.821 79.1818V49.1818H114.787V52.8466H115.057C115.322 52.2595 115.705 51.6629 116.207 51.0568C116.719 50.4413 117.382 49.9299 118.196 49.5227C119.02 49.1061 120.043 48.8977 121.264 48.8977C122.855 48.8977 124.323 49.3144 125.668 50.1477C127.012 50.9716 128.087 52.2169 128.892 53.8835C129.697 55.5407 130.099 57.6193 130.099 60.1193C130.099 62.553 129.706 64.608 128.92 66.2841C128.144 67.9508 127.083 69.215 125.739 70.0767C124.403 70.929 122.907 71.3551 121.25 71.3551C120.076 71.3551 119.077 71.161 118.253 70.7727C117.438 70.3845 116.771 69.8968 116.25 69.3097C115.729 68.7131 115.331 68.1117 115.057 67.5057H114.872V79.1818H108.821ZM114.744 60.0909C114.744 61.3883 114.924 62.5199 115.284 63.4858C115.644 64.4517 116.165 65.2045 116.847 65.7443C117.528 66.2746 118.357 66.5398 119.332 66.5398C120.317 66.5398 121.151 66.2699 121.832 65.7301C122.514 65.1809 123.03 64.4233 123.381 63.4574C123.741 62.482 123.92 61.3598 123.92 60.0909C123.92 58.8314 123.745 57.7235 123.395 56.767C123.045 55.8106 122.528 55.0625 121.847 54.5227C121.165 53.983 120.327 53.7131 119.332 53.7131C118.348 53.7131 117.514 53.9735 116.832 54.4943C116.16 55.0152 115.644 55.7538 115.284 56.7102C114.924 57.6667 114.744 58.7936 114.744 60.0909ZM140.185 58.3864V71H134.134V41.9091H140.014V53.0312H140.27C140.762 51.7434 141.558 50.7348 142.656 50.0057C143.755 49.267 145.133 48.8977 146.79 48.8977C148.305 48.8977 149.626 49.2292 150.753 49.892C151.889 50.5455 152.77 51.4877 153.395 52.7188C154.029 53.9403 154.342 55.4034 154.332 57.108V71H148.281V58.1875C148.291 56.8428 147.95 55.7964 147.259 55.0483C146.577 54.3002 145.62 53.9261 144.389 53.9261C143.565 53.9261 142.836 54.1013 142.202 54.4517C141.577 54.8021 141.084 55.3134 140.724 55.9858C140.374 56.6487 140.194 57.4489 140.185 58.3864ZM159.094 71V49.1818H165.146V71H159.094ZM162.134 46.3693C161.235 46.3693 160.463 46.071 159.819 45.4744C159.184 44.8684 158.867 44.1439 158.867 43.3011C158.867 42.4678 159.184 41.7528 159.819 41.1562C160.463 40.5502 161.235 40.2472 162.134 40.2472C163.034 40.2472 163.801 40.5502 164.435 41.1562C165.079 41.7528 165.401 42.4678 165.401 43.3011C165.401 44.1439 165.079 44.8684 164.435 45.4744C163.801 46.071 163.034 46.3693 162.134 46.3693ZM169.993 71V49.1818H175.859V52.9886H176.087C176.484 51.6345 177.152 50.6117 178.089 49.9205C179.027 49.2197 180.107 48.8693 181.328 48.8693C181.631 48.8693 181.958 48.8883 182.308 48.9261C182.659 48.964 182.966 49.0161 183.232 49.0824V54.4517C182.947 54.3665 182.554 54.2907 182.053 54.2244C181.551 54.1581 181.091 54.125 180.675 54.125C179.785 54.125 178.989 54.3191 178.288 54.7074C177.597 55.0862 177.048 55.6165 176.641 56.2983C176.243 56.9801 176.044 57.7661 176.044 58.6562V71H169.993ZM195.288 71.4261C193.043 71.4261 191.112 70.9716 189.492 70.0625C187.882 69.1439 186.642 67.8466 185.771 66.1705C184.899 64.4848 184.464 62.4915 184.464 60.1903C184.464 57.946 184.899 55.9763 185.771 54.2812C186.642 52.5862 187.868 51.2652 189.45 50.3182C191.04 49.3712 192.906 48.8977 195.046 48.8977C196.486 48.8977 197.826 49.1297 199.066 49.5938C200.316 50.0483 201.405 50.7348 202.333 51.6534C203.271 52.572 204 53.7273 204.521 55.1193C205.041 56.5019 205.302 58.1212 205.302 59.9773V61.6392H186.879V57.8892H199.606C199.606 57.018 199.416 56.2462 199.038 55.5739C198.659 54.9015 198.133 54.3759 197.461 53.9972C196.798 53.6089 196.026 53.4148 195.146 53.4148C194.227 53.4148 193.413 53.6278 192.702 54.054C192.002 54.4706 191.452 55.0341 191.055 55.7443C190.657 56.4451 190.453 57.2263 190.444 58.0881V61.6534C190.444 62.733 190.643 63.6657 191.04 64.4517C191.448 65.2377 192.021 65.8438 192.759 66.2699C193.498 66.696 194.374 66.9091 195.387 66.9091C196.059 66.9091 196.675 66.8144 197.234 66.625C197.792 66.4356 198.271 66.1515 198.668 65.7727C199.066 65.3939 199.369 64.9299 199.577 64.3807L205.174 64.75C204.89 66.0947 204.308 67.2689 203.427 68.2727C202.556 69.267 201.429 70.0436 200.046 70.6023C198.673 71.1515 197.087 71.4261 195.288 71.4261Z" fill="white"/>
</g>
<defs>
<filter id="filter0_d_107_39" x="0.833801" y="6.0318" width="208.468" height="90.8892" filterUnits="userSpaceOnUse" color-interpolation-filters="sRGB">
<feFlood flood-opacity="0" result="BackgroundImageFix"/>
<feColorMatrix in="SourceAlpha" type="matrix" values="0 0 0 0 0 0 0 0 0 0 0 0 0 0 0 0 0 0 127 0" result="hardAlpha"/>
<feOffset dy="4"/>
<feGaussianBlur stdDeviation="2"/>
<feComposite in2="hardAlpha" operator="out"/>
<feColorMatrix type="matrix" values="0 0 0 0 0 0 0 0 0 0 0 0 0 0 0 0 0 0 0.25 0"/>
<feBlend mode="normal" in2="BackgroundImageFix" result="effect1_dropShadow_107_39"/>
<feBlend mode="normal" in="SourceGraphic" in2="effect1_dropShadow_107_39" result="shape"/>
</filter>
</defs>
</svg>
